<svg width="1728" height="1117" viewBox="0 0 1728 1117" fill="none" xmlns="http://www.w3.org/2000/svg">
<rect width="1728" height="1117" rx="42" fill="white"/>
<path d="M1092.5 671L1111.06 780.28L1185.76 698.384L1142.3 800.352L1249.41 771.841L1157.72 834.123L1263.24 868.049L1152.43 870.871L1222.87 956.463L1128.12 898.929L1141.1 1009.01L1092.5 909.389L1043.9 1009.01L1056.88 898.929L962.133 956.463L1032.57 870.871L921.756 868.049L1027.28 834.123L935.588 771.841L1042.7 800.352L999.239 698.384L1073.94 780.28L1092.5 671Z" fill="#CA0230"/>
<path d="M333.645 641.851C334.539 639.079 338.461 639.079 339.355 641.851L371.485 741.457C372.085 743.319 374.278 744.117 375.935 743.077L464.573 687.427C467.04 685.878 470.044 688.399 468.947 691.097L429.535 788.052C428.798 789.864 429.965 791.885 431.903 792.154L535.574 806.499C538.459 806.898 539.14 810.76 536.566 812.122L444.053 861.06C442.323 861.975 441.918 864.273 443.23 865.724L513.426 943.352C515.38 945.512 513.419 948.909 510.571 948.297L408.246 926.319C406.333 925.908 404.545 927.408 404.618 929.363L408.493 1033.95C408.601 1036.86 404.915 1038.2 403.127 1035.9L338.868 953.294C337.667 951.75 335.333 951.75 334.132 953.294L269.873 1035.9C268.085 1038.2 264.399 1036.86 264.507 1033.95L268.382 929.363C268.455 927.408 266.667 925.908 264.754 926.319L162.429 948.297C159.581 948.909 157.62 945.512 159.574 943.352L229.77 865.724C231.082 864.273 230.677 861.975 228.947 861.06L136.434 812.122C133.86 810.76 134.541 806.898 137.426 806.499L241.097 792.154C243.035 791.885 244.202 789.864 243.465 788.052L204.053 691.097C202.956 688.399 205.96 685.878 208.427 687.427L297.065 743.077C298.722 744.117 300.915 743.319 301.515 741.457L333.645 641.851Z" fill="#FFB7B7"/>
<path d="M1473.34 135.264C1475.28 133.093 1478.87 134.683 1478.56 137.58L1471.99 199.631C1471.79 201.577 1473.47 203.196 1475.41 202.916L1537.17 194.013C1540.05 193.598 1541.77 197.12 1539.68 199.142L1494.76 242.455C1493.35 243.813 1493.6 246.134 1495.26 247.165L1548.29 280.043C1550.77 281.578 1549.83 285.384 1546.92 285.585L1484.67 289.894C1482.72 290.029 1481.42 291.965 1482.03 293.824L1501.52 353.099C1502.43 355.866 1499.26 358.176 1496.91 356.462L1446.45 319.749C1444.87 318.599 1442.63 319.245 1441.9 321.061L1418.73 378.998C1417.65 381.703 1413.74 381.435 1413.03 378.608L1397.98 318.053C1397.51 316.154 1395.38 315.208 1393.65 316.133L1338.66 345.622C1336.1 346.998 1333.27 344.278 1334.55 341.661L1361.94 285.597C1362.8 283.84 1361.78 281.744 1359.86 281.344L1298.78 268.587C1295.93 267.992 1295.51 264.092 1298.18 262.909L1355.2 237.57C1356.98 236.775 1357.55 234.51 1356.34 232.973L1317.75 183.939C1315.94 181.65 1318.13 178.396 1320.93 179.201L1380.9 196.443C1382.78 196.983 1384.67 195.609 1384.73 193.653L1386.69 131.286C1386.78 128.375 1390.55 127.288 1392.17 129.704L1427.03 181.459C1428.12 183.082 1430.45 183.242 1431.75 181.783L1473.34 135.264Z" fill="#CCC700"/>
<path d="M734.5 671L767.348 752.726L844.738 711.357L817.673 795.2L903.395 813.546L829.081 860.274L883.023 929.75L796.233 917.5L793.156 1005.6L734.5 940.1L675.844 1005.6L672.767 917.5L585.977 929.75L639.919 860.274L565.605 813.546L651.327 795.2L624.262 711.357L701.652 752.726L734.5 671Z" fill="#06787A"/>
<path d="M317.5 95L342.303 156.353L400.741 125.297L380.304 188.24L445.033 202.013L388.918 237.093L429.65 289.25L364.115 280.054L361.792 346.19L317.5 297.02L273.208 346.19L270.885 280.054L205.35 289.25L246.082 237.093L189.967 202.013L254.696 188.24L234.259 125.297L292.697 156.353L317.5 95Z" fill="#4AB1B3"/>
<path d="M1441 681L1474.32 729.53L1528.58 706.717L1530.37 765.556L1588.36 775.703L1558.06 826.17L1601.35 866.055L1548.57 892.127L1563.43 949.087L1504.94 942.487L1486.64 998.438L1441 961.26L1395.36 998.438L1377.06 942.487L1318.57 949.087L1333.43 892.127L1280.65 866.055L1323.94 826.17L1293.64 775.703L1351.63 765.556L1353.42 706.717L1407.68 729.53L1441 681Z" fill="#CCC700"/>
<path d="M826.683 65.9237C832.721 62.2805 840.279 62.2805 846.317 65.9237L882.166 87.5567C883.188 88.1733 884.265 88.6922 885.385 89.1066L924.65 103.647C931.262 106.096 935.975 112.005 936.891 118.997L942.329 160.513C942.484 161.696 942.751 162.862 943.124 163.996L956.238 203.76C958.446 210.457 956.764 217.826 951.869 222.901L922.801 253.038C921.972 253.897 921.227 254.832 920.574 255.831L897.66 290.876C893.802 296.778 886.992 300.058 879.972 299.395L838.286 295.459C837.098 295.346 835.902 295.346 834.714 295.459L793.028 299.395C786.008 300.058 779.198 296.778 775.34 290.876L752.426 255.831C751.773 254.832 751.028 253.897 750.199 253.038L721.131 222.901C716.236 217.826 714.554 210.457 716.762 203.76L729.876 163.996C730.249 162.862 730.516 161.696 730.671 160.513L736.109 118.997C737.025 112.005 741.738 106.096 748.35 103.647L787.615 89.1066C788.734 88.6922 789.812 88.1733 790.834 87.5567L826.683 65.9237Z" fill="#16921B"/>
<path d="M593.484 169.995C597.16 165.054 604.806 165.945 607.247 171.599L702.429 392.057C704.871 397.711 700.276 403.887 694.159 403.174L455.645 375.376C449.528 374.663 446.477 367.595 450.153 362.654L593.484 169.995Z" fill="#FFB7B7"/>
<rect x="1050" y="114" width="180" height="278" rx="90" fill="#CA0230"/>
</svg>
